<?xml version="1.0" encoding="UTF-8" standalone="no"?>
<!-- Created with Inkscape (http://www.inkscape.org/) -->

<svg
   version="1.1"
   id="svg1"
   width="2016"
   height="832"
   viewBox="0 0 2016 832"
   sodipodi:docname="for-real-ai-enabled-white.svg"
   inkscape:version="1.3.2 (091e20e, 2023-11-25)"
   xmlns:inkscape="http://www.inkscape.org/namespaces/inkscape"
   xmlns:sodipodi="http://sodipodi.sourceforge.net/DTD/sodipodi-0.dtd"
   xmlns="http://www.w3.org/2000/svg"
   xmlns:svg="http://www.w3.org/2000/svg">
  <defs
     id="defs1" />
  <sodipodi:namedview
     id="namedview1"
     pagecolor="#ffffff"
     bordercolor="#000000"
     borderopacity="0.25"
     inkscape:showpageshadow="2"
     inkscape:pageopacity="0.0"
     inkscape:pagecheckerboard="0"
     inkscape:deskcolor="#d1d1d1"
     inkscape:zoom="0.42906746"
     inkscape:cx="1008"
     inkscape:cy="416.0185"
     inkscape:window-width="1920"
     inkscape:window-height="1052"
     inkscape:window-x="0"
     inkscape:window-y="28"
     inkscape:window-maximized="0"
     inkscape:current-layer="g1" />
  <g
     inkscape:groupmode="layer"
     inkscape:label="Image"
     id="g1">
    <path
       style="fill:#ffffff"
       d="m 932.8201,701.67822 c -4.66791,-1.3167 -6.79201,-2.47102 -9.4401,-5.13011 -2.47419,-2.48446 -4.04667,-5.66829 -4.04667,-8.19336 0,-1.52462 0.25789,-1.68808 2.66325,-1.68808 2.51042,0 2.74571,0.17541 4.10012,3.05679 2.4614,5.2364 8.8756,8.13005 16.49083,7.43953 9.89536,-0.89728 13.91747,-6.4015 14.49015,-19.82966 0.24939,-5.84754 0.15781,-6.78917 -0.55624,-5.71946 -5.38332,8.0647 -12.05182,10.90344 -21.32683,9.07869 -5.02299,-0.98821 -7.08706,-1.99657 -10.61956,-5.18797 -5.01954,-4.53485 -7.32711,-11.10649 -7.33332,-20.88427 -0.0102,-16.01684 9.89577,-26.68546 23.98065,-25.82692 2.44436,0.14899 5.49429,0.78221 6.77762,1.40715 2.61158,1.27176 6.41749,4.61058 8.1317,7.13371 1.11825,1.64594 1.13211,1.61225 1.16667,-2.83426 l 0.035,-4.5 h 3.03349 3.03349 l -0.20016,28.16667 c -0.19298,27.15736 -0.25214,28.29349 -1.65107,31.70605 -2.24393,5.47389 -4.57593,8.05391 -9.26157,10.24659 -5.22637,2.44571 -13.86979,3.13786 -19.46741,1.55891 z m 14.32807,-27.37747 c 6.47301,-3.22564 9.73893,-9.70196 9.7331,-19.30075 -0.008,-13.00037 -6.31158,-21 -16.54794,-21 -4.88949,0 -8.82216,1.80143 -11.97579,5.48575 -3.45789,4.03976 -4.69248,8.30644 -4.68203,16.18092 0.008,5.77458 0.24123,7.1647 1.74543,10.38856 4.07621,8.73622 13.5373,12.32673 21.72723,8.24552 z m -631.81484,8.16186 c -5.90873,-1.70567 -10.11846,-5.2341 -12.91676,-10.82634 -2.29852,-4.59345 -3.17415,-8.93286 -3.15517,-15.63627 0.0286,-10.1124 2.639,-16.72266 8.78624,-22.24956 5.43855,-4.88973 13.80326,-6.44204 21.84487,-4.05393 4.91121,1.45847 10.68867,7.1914 12.71239,12.6144 1.66836,4.47073 2.72843,9.43618 2.72843,12.78008 v 2.24234 h -20.09178 -20.09179 l 0.44434,3.78064 c 1.21711,10.35573 7.90544,16.9041 17.23197,16.87139 7.18459,-0.0252 12.29081,-3.54939 14.84926,-10.24861 1.15295,-3.01895 1.22232,-3.07008 4.16524,-3.07008 2.95301,0 2.98758,0.0259 2.60258,1.95093 -1.19759,5.98794 -5.615,11.88632 -10.80273,14.42444 -4.40411,2.15473 -13.35717,2.84946 -18.30709,1.42057 z m 23.33334,-31.71939 c 0,-5.84085 -4.34964,-12.83596 -9.5456,-15.35128 -5.85858,-2.83609 -14.22255,-1.22274 -18.23179,3.51677 -2.15281,2.54493 -4.63682,7.87053 -5.25103,11.25796 l -0.4533,2.5 h 16.74086 16.74086 z m 76.47152,31.55404 c -9.90037,-3.16326 -13.33565,-17.081 -5.87886,-23.81776 3.55258,-3.20954 8.56982,-4.90708 18.18876,-6.15399 4.52022,-0.58596 8.89832,-1.23263 9.72912,-1.43703 2.36925,-0.58292 4.15626,-3.36913 4.15509,-6.47839 -0.003,-6.79911 -4.63846,-10.4207 -13.30689,-10.39545 -8.28009,0.0241 -13.02648,3.22892 -13.84748,9.34991 L 413.82444,646 h -3.29048 c -2.80629,0 -3.24531,-0.17167 -2.9835,-1.16667 0.16884,-0.64166 0.67453,-2.57911 1.12375,-4.30542 1.88138,-7.22988 8.16492,-11.23378 18.39614,-11.72212 7.89379,-0.37677 12.65869,0.92325 16.13857,4.40313 3.75961,3.75961 4.12312,5.85832 4.13424,23.86843 0.011,17.88755 0.25595,19.11756 3.87627,19.46769 2.08332,0.20148 2.17916,0.33025 1.9848,2.66667 L 453,681.66667 l -3.83152,-0.0167 c -4.64493,-0.0202 -6.28996,-1.33503 -7.01985,-5.61056 l -0.49519,-2.90071 -2.50082,3.05193 c -3.65777,4.46383 -8.57068,6.67146 -15.41379,6.92625 -3.53421,0.13159 -6.5116,-0.15215 -8.60064,-0.81961 z m 15.2196,-5.40872 c 4.15984,-1.41741 9.04495,-6.20887 10.16066,-9.96589 0.44819,-1.5092 0.81488,-5.04476 0.81488,-7.85679 0,-4.81558 -0.0736,-5.07339 -1.26602,-4.43522 -0.69631,0.37266 -4.98128,1.27358 -9.52216,2.00205 -13.07487,2.09753 -17.30154,4.08221 -18.54745,8.70919 -2.44833,9.09239 7.39498,15.28284 18.36009,11.54666 z m 47.19718,5.25071 c -4.32771,-1.54575 -7.96092,-4.28905 -9.79892,-7.39879 l -1.42272,-2.40713 -0.19587,4.83334 L 465.94159,682 H 462.97079 460 v -36 -36 h 3.33333 3.33334 v 14.74201 14.74201 l 2.16666,-3.22702 c 1.58631,-2.36263 3.22646,-3.76674 6.12322,-5.242 3.59105,-1.82886 4.5456,-2.01421 10.33333,-2.00648 5.36841,0.007 6.83531,0.25186 9.2764,1.54736 8.91879,4.73327 13.43372,13.36075 13.43372,25.6702 0,11.99853 -5.16281,21.39964 -13.88289,25.27972 -4.39546,1.95581 -12.04117,2.24823 -16.56214,0.63345 z m 14.50834,-5.90472 c 7.07014,-3.84805 10.92106,-13.85708 9.39618,-24.42186 -0.92268,-6.39259 -2.55158,-10.19365 -5.73078,-13.37285 -3.53657,-3.53657 -6.48387,-4.58564 -12.12697,-4.31651 -3.86185,0.18418 -5.33237,0.59625 -8,2.24178 -10.02662,6.18494 -12.1032,25.20002 -3.9232,35.92455 4.28179,5.61372 13.89904,7.47487 20.38477,3.94489 z m 58.60336,6.22808 c -5.90874,-1.70567 -10.11846,-5.2341 -12.91677,-10.82634 -2.29852,-4.59345 -3.17415,-8.93286 -3.15516,-15.63627 0.0286,-10.1124 2.63899,-16.72266 8.78624,-22.24956 5.43855,-4.88973 13.80325,-6.44204 21.84486,-4.05393 4.91121,1.45847 10.68867,7.1914 12.71239,12.6144 1.66836,4.47073 2.72844,9.43618 2.72844,12.78008 v 2.24234 h -20.09179 -20.09179 l 0.44434,3.78064 c 1.21711,10.35573 7.90544,16.9041 17.23197,16.87139 7.1846,-0.0252 12.29081,-3.54939 14.84927,-10.24861 1.15295,-3.01895 1.22232,-3.07008 4.16524,-3.07008 2.953,0 2.98757,0.0259 2.60257,1.95093 -1.19759,5.98794 -5.615,11.88632 -10.80273,14.42444 -4.40411,2.15473 -13.35716,2.84946 -18.30708,1.42057 z M 574,650.74322 c 0,-5.84085 -4.34964,-12.83596 -9.5456,-15.35128 -5.85857,-2.83609 -14.22254,-1.22274 -18.23178,3.51677 -2.15281,2.54493 -4.63683,7.87053 -5.25104,11.25796 l -0.4533,2.5 H 557.25914 574 Z m 29.33029,31.68972 c -3.6115,-0.9746 -8.71679,-4.36553 -10.64089,-7.06768 -5.81692,-8.16911 -7.37549,-22.46201 -3.52368,-32.31383 3.5199,-9.00288 11.17617,-14.38476 20.46376,-14.38476 6.3563,0 10.59308,1.54798 14.24578,5.20494 1.71861,1.72061 3.4821,3.72839 3.91887,4.46172 0.63127,1.0599 0.80217,-1.70862 0.83333,-13.5 L 628.66667,610 h 3 3 v 36 36 H 632 629.33333 v -4.66667 c 0,-2.56666 -0.225,-4.65511 -0.5,-4.64098 -0.275,0.0141 -1.1,0.97573 -1.83333,2.1369 -4.2528,6.73395 -14.58873,10.05428 -23.66971,7.60369 z m 12.9211,-5.25369 c 3.99368,-1.19653 8.572,-5.96102 10.42213,-10.84592 1.18851,-3.13803 1.51498,-5.36478 1.51498,-10.33333 0,-10.34581 -3.61833,-17.35164 -10.6748,-20.66857 -2.53107,-1.18974 -4.01685,-1.41809 -7.93844,-1.22006 -4.06834,0.20544 -5.27402,0.55952 -7.69196,2.25891 -5.53587,3.89076 -8.54997,10.81077 -8.54997,19.62972 0,10.27963 4.37618,18.47374 11.35326,21.25827 2.33024,0.92999 8.33394,0.88897 11.5648,-0.079 z m 92.08194,5.57598 c -10.743,-2.82505 -17,-12.54985 -17,-26.4219 0,-12.2855 4.66909,-21.21222 13.46996,-25.75289 3.96336,-2.04484 12.4013,-2.50655 17.12635,-0.93714 8.7513,2.90671 15.40369,13.75285 15.40369,25.11436 v 2.57567 h -19.68759 c -17.21197,0 -19.73771,0.13063 -20.08621,1.03881 -0.67403,1.75649 1.6165,9.49233 3.71275,12.53913 3.39638,4.93646 7.5593,7.09585 13.63759,7.07409 7.11672,-0.0255 11.77366,-3.11125 14.81806,-9.81869 1.57153,-3.46241 1.62056,-3.5 4.56511,-3.5 h 2.97652 l -0.90087,2.99334 c -1.99917,6.64276 -5.93704,11.32242 -11.67161,13.87023 -3.24183,1.44032 -12.81863,2.15723 -16.36375,1.22499 z m 22.59438,-30.63826 c 0.69761,-1.12875 -1.52606,-8.37919 -3.37797,-11.01414 -3.16029,-4.49654 -6.84926,-6.6617 -11.89782,-6.98317 -8.21724,-0.52324 -14.22785,4.10986 -17.00766,13.10983 -0.71952,2.32954 -1.14113,4.50591 -0.9369,4.83636 0.465,0.75238 32.75624,0.80207 33.22035,0.0511 z m 22.21048,30.18029 c -9.90037,-3.16326 -13.33565,-17.081 -5.87886,-23.81776 3.55258,-3.20954 8.56982,-4.90708 18.18876,-6.15399 4.52022,-0.58596 8.89832,-1.23263 9.72912,-1.43703 2.36925,-0.58292 4.15626,-3.36913 4.15509,-6.47839 -0.003,-6.79911 -4.63846,-10.4207 -13.30689,-10.39545 -8.28009,0.0241 -13.02648,3.22892 -13.84748,9.34991 L 751.82444,646 h -3.29048 c -2.80629,0 -3.24531,-0.17167 -2.9835,-1.16667 0.16884,-0.64166 0.67453,-2.57911 1.12375,-4.30542 1.88138,-7.22988 8.16492,-11.23378 18.39614,-11.72212 7.89379,-0.37677 12.65869,0.92325 16.13857,4.40313 3.75961,3.75961 4.12312,5.85832 4.13424,23.86843 0.011,17.88755 0.25595,19.11756 3.87627,19.46769 2.08332,0.20148 2.17916,0.33025 1.9848,2.66667 L 791,681.66667 l -3.83152,-0.0167 c -4.64493,-0.0202 -6.28996,-1.33503 -7.01985,-5.61056 l -0.49519,-2.90071 -2.50082,3.05193 c -3.65777,4.46383 -8.57068,6.67146 -15.41379,6.92625 -3.53421,0.13159 -6.5116,-0.15215 -8.60064,-0.81961 z m 15.2196,-5.40872 c 4.15984,-1.41741 9.04495,-6.20887 10.16066,-9.96589 0.44819,-1.5092 0.81488,-5.04476 0.81488,-7.85679 0,-4.81558 -0.0736,-5.07339 -1.26602,-4.43522 -0.69631,0.37266 -4.98128,1.27358 -9.52216,2.00205 -13.07487,2.09753 -17.30154,4.08221 -18.54745,8.70919 -2.44833,9.09239 7.39498,15.28284 18.36009,11.54666 z m 41.46519,5.71943 c -3.86931,-0.9116 -7.40324,-2.95389 -9.76409,-5.64275 -2.37599,-2.7061 -3.22951,-4.57328 -4.022,-8.79855 l -0.53142,-2.83334 h 3.16206 3.16206 l 0.43126,2.69693 c 0.31271,1.95563 1.21259,3.47827 3.27384,5.53951 8.47072,8.47073 26.72469,4.144 25.60611,-6.06941 -0.17065,-1.55813 -0.70207,-3.30505 -1.18094,-3.88205 -1.58459,-1.90932 -6.19762,-3.80793 -13.81278,-5.68499 -13.53607,-3.33652 -18.01371,-6.50835 -18.65833,-13.21704 -0.88054,-9.16394 5.82549,-15.25289 17.51125,-15.89989 6.22739,-0.3448 9.4998,0.39776 13.81607,3.13506 3.39814,2.15503 6.01925,6.40398 6.71286,10.88188 l 0.38724,2.5 h -3.20419 c -3.14702,0 -3.21096,-0.0417 -3.58387,-2.33966 -0.91665,-5.64869 -5.77241,-8.96439 -13.12811,-8.96439 -7.7043,0 -12.18182,3.1957 -12.18182,8.69441 0,5.04815 4.16675,7.48769 18.03442,10.55876 7.16389,1.58647 9.02115,2.44108 11.93984,5.494 2.657,2.77921 3.54089,5.08162 3.54089,9.22355 0,1.78559 -0.3184,4.09106 -0.70755,5.12327 -0.933,2.4747 -4.38338,6.03259 -7.29245,7.51968 -4.79984,2.45363 -13.65211,3.3452 -19.51035,1.96502 z m 336.32612,-0.21587 c -7.7653,-2.52898 -12.5861,-8.00744 -14.8559,-16.88244 -3.8052,-14.87813 1.2129,-29.27258 12.1768,-34.92922 3.4082,-1.75845 12.0442,-2.46064 16.2597,-1.32209 8.9353,2.41324 15.2891,11.45231 16.0959,22.89825 l 0.3635,5.1566 -19.915,0.17673 -19.9151,0.17674 0.2148,2.97118 c 0.7166,9.91439 7.8926,17.31248 16.8267,17.34751 7.3123,0.0287 11.4663,-2.51993 14.6509,-8.98867 l 2.1316,-4.33002 h 2.9212 c 2.8517,0 2.9105,0.0436 2.47,1.83333 -1.6362,6.64917 -6.2245,12.45385 -11.7562,14.87284 -4.3451,1.90013 -13.3663,2.42054 -17.6689,1.01926 z m 23.5728,-32.53045 c -1.0382,-6.49261 -5.0065,-12.25258 -10.0552,-14.59508 -3.2785,-1.52116 -8.8443,-1.62746 -12.1881,-0.23278 -5.1315,2.14028 -9.7441,8.52014 -10.5825,14.637 l -0.4107,2.99588 h 16.8425 16.8425 z m 82.9448,32.60096 c -5.9088,-1.70567 -10.1185,-5.2341 -12.9168,-10.82634 -2.2985,-4.59345 -3.1741,-8.93286 -3.1552,-15.63627 0.029,-10.1124 2.639,-16.72266 8.7863,-22.24956 5.4385,-4.88973 13.8032,-6.44204 21.8448,-4.05393 4.9113,1.45847 10.6887,7.1914 12.7124,12.6144 1.6684,4.47073 2.7285,9.43618 2.7285,12.78008 v 2.24234 h -20.0918 -20.0918 l 0.4443,3.78064 c 1.2171,10.35573 7.9055,16.9041 17.232,16.87139 7.1846,-0.0252 12.2908,-3.54939 14.8493,-10.24861 1.1529,-3.01895 1.2223,-3.07008 4.1652,-3.07008 2.953,0 2.9876,0.0259 2.6026,1.95093 -1.1976,5.98794 -5.615,11.88632 -10.8028,14.42444 -4.4041,2.15473 -13.3571,2.84946 -18.307,1.42057 z M 1276,650.74322 c 0,-5.84085 -4.3496,-12.83596 -9.5456,-15.35128 -5.8586,-2.83609 -14.2225,-1.22274 -18.2318,3.51677 -2.1528,2.54493 -4.6368,7.87053 -5.251,11.25796 l -0.4533,2.5 H 1259.2591 1276 Z m 75.4824,31.64888 c -7.7652,-2.52898 -12.586,-8.00744 -14.8559,-16.88244 -3.8052,-14.87813 1.2129,-29.27258 12.1768,-34.92922 3.4083,-1.75845 12.0442,-2.46064 16.2598,-1.32209 8.9352,2.41324 15.289,11.45231 16.0959,22.89825 l 0.3635,5.1566 -19.9151,0.17673 -19.915,0.17674 0.2147,2.97118 c 0.7166,9.91439 7.8926,17.31248 16.8268,17.34751 7.3122,0.0287 11.4663,-2.51993 14.6508,-8.98867 l 2.1317,-4.33002 h 2.9212 c 2.8516,0 2.9104,0.0436 2.47,1.83333 -1.6363,6.64917 -6.2246,12.45385 -11.7562,14.87284 -4.3452,1.90013 -13.3664,2.42054 -17.669,1.01926 z m 23.5728,-32.53045 c -1.0382,-6.49261 -5.0065,-12.25258 -10.0552,-14.59508 -3.2785,-1.52116 -8.8442,-1.62746 -12.1881,-0.23278 -5.1315,2.14028 -9.7441,8.52014 -10.5825,14.637 l -0.4106,2.99588 h 16.8425 16.8424 z m 55.1949,-3.82668 15.4166,-37.36688 2.5,-7.1e-4 c 1.375,-3.9e-4 2.4969,0.0743 2.4932,0.16595 -0,0.0917 -6.8415,16.81667 -15.195,37.16667 l -15.1883,37 -2.7215,0.20092 -2.7216,0.20092 z M 1599,682.75523 c -10.743,-2.82505 -17,-12.54985 -17,-26.4219 0,-12.2855 4.6691,-21.21222 13.47,-25.75289 3.9633,-2.04484 12.4013,-2.50655 17.1263,-0.93714 8.7513,2.90671 15.4037,13.75285 15.4037,25.11436 v 2.57567 h -19.6876 c -17.212,0 -19.7377,0.13063 -20.0862,1.03881 -0.674,1.75649 1.6165,9.49233 3.7127,12.53913 3.3964,4.93646 7.5593,7.09585 13.6376,7.07409 7.1168,-0.0255 11.7737,-3.11125 14.8181,-9.81869 1.5715,-3.46241 1.6206,-3.5 4.5651,-3.5 h 2.9765 l -0.9008,2.99334 c -1.9992,6.64276 -5.9371,11.32242 -11.6717,13.87023 -3.2418,1.44032 -12.8186,2.15723 -16.3637,1.22499 z m 22.5944,-30.63826 c 0.6976,-1.12875 -1.5261,-8.37919 -3.378,-11.01414 -3.1603,-4.49654 -6.8493,-6.6617 -11.8978,-6.98317 -8.2173,-0.52324 -14.2279,4.10986 -17.0077,13.10983 -0.7195,2.32954 -1.1411,4.50591 -0.9369,4.83636 0.465,0.75238 32.7563,0.80207 33.2204,0.0511 z m 58.6217,30.2567 c -8.7623,-2.7398 -13.9306,-9.6938 -15.5779,-20.96026 -1.9773,-13.52265 3.3194,-25.99431 13.0799,-30.79814 2.8095,-1.38277 4.2415,-1.61527 9.9486,-1.61527 6.1337,0 6.9501,0.15703 10.2125,1.96427 7.4223,4.11159 11.0511,10.68774 12.4355,22.53573 l 0.4479,3.83333 h -20.1412 -20.1413 l 0.3733,3.61662 c 0.727,7.04409 4.7294,13.27001 10.1466,15.78348 3.0071,1.39526 8.6297,1.63963 12.5675,0.54621 3.3504,-0.93032 7.9046,-5.51949 9.423,-9.49538 1.1709,-3.06599 1.2397,-3.11759 4.153,-3.11759 h 2.9624 l -0.4577,2.16666 c -0.6939,3.28401 -3.6207,8.31562 -6.5284,11.22335 -4.5937,4.59373 -15.4653,6.64285 -22.9037,4.31699 z M 1704,651.121 c 0,-2.80212 -1.9534,-8.18989 -3.9872,-10.99751 -4.1135,-5.67857 -12.7481,-7.82287 -19.1064,-4.74487 -5.0001,2.42054 -8.9513,8.16512 -9.9616,14.48303 l -0.4485,2.80502 H 1687.2481 1704 Z m 76.3333,31.63423 c -10.743,-2.82505 -17,-12.54985 -17,-26.4219 0,-12.2855 4.6691,-21.21222 13.47,-25.75289 3.9633,-2.04484 12.4013,-2.50655 17.1263,-0.93714 8.7513,2.90671 15.4037,13.75285 15.4037,25.11436 v 2.57567 h -19.6876 c -17.2119,0 -19.7377,0.13063 -20.0862,1.03881 -0.674,1.75649 1.6165,9.49233 3.7128,12.53913 3.3964,4.93646 7.5593,7.09585 13.6376,7.07409 7.1167,-0.0255 11.7736,-3.11125 14.818,-9.81869 1.5716,-3.46241 1.6206,-3.5 4.5651,-3.5 h 2.9766 l -0.9009,2.99334 c -1.9992,6.64276 -5.9371,11.32242 -11.6716,13.87023 -3.2419,1.44032 -12.8186,2.15723 -16.3638,1.22499 z m 22.5944,-30.63826 c 0.6976,-1.12875 -1.5261,-8.37919 -3.378,-11.01414 -3.1602,-4.49654 -6.8492,-6.6617 -11.8978,-6.98317 -8.2172,-0.52324 -14.2278,4.10986 -17.0076,13.10983 -0.7196,2.32954 -1.1412,4.50591 -0.9369,4.83636 0.465,0.75238 32.7562,0.80207 33.2203,0.0511 z M 172.28728,680.83333 C 172.4947,680.19167 178.94362,664.06667 186.61821,645 l 13.95379,-34.66667 3.88067,-0.18961 3.88066,-0.18961 6.83433,17.52295 c 3.75887,9.63762 10.10612,25.86208 14.10499,36.05437 l 7.27068,18.53143 -3.69907,-0.1981 -3.69906,-0.19809 -4.40593,-11 -4.40594,-11 -16.14344,-0.17847 -16.14345,-0.17847 -0.90964,1.84514 c -0.50031,1.01482 -2.53314,6.12013 -4.5174,11.34513 l -3.60775,9.5 h -3.55075 c -3.08089,0 -3.50085,-0.15438 -3.17362,-1.16667 z m 45.55524,-27.66666 C 212.51125,638.36399 204.29903,617.44957 203.96626,617.82735 203.46258,618.39914 190,652.82162 190,653.53768 190,653.79196 196.3321,654 204.07133,654 c 10.97268,0 14.00523,-0.18351 13.77119,-0.83333 z M 243.33333,646 V 610 H 247 h 3.66667 v 36 36 H 247 243.33333 Z M 354,656 v -26 h 3 3 v 4.43336 4.43336 l 1.94072,-2.67909 c 3.73209,-5.152 8.8227,-7.5391 15.97643,-7.4917 7.87561,0.0522 13.08043,2.87356 15.93414,8.6374 l 1.81538,3.66667 0.21008,20.5 0.21009,20.5 H 393.04342 390 l -0.0132,-15.83333 c -0.0147,-17.5975 -0.65625,-23.93513 -2.76913,-27.35383 -1.89488,-3.06598 -5.80299,-4.78356 -10.88433,-4.78356 -6.8678,0 -11.42217,3.03453 -14.46425,9.63739 -1.45831,3.16525 -1.54663,4.21575 -1.75149,20.83333 L 359.90185,682 H 356.95092 354 Z m 164.66667,-10 v -36 h 3 3 v 36 36 h -3 -3 z m 156.66666,0 v -36 h 3 3 v 36 36 h -3 -3 z m 172,10 v -26 h 3 3 v 26 26 h -3 -3 z m 18,0 v -26 h 2.96954 2.96954 l 0.19713,4.34133 0.19713,4.34132 L 874,635.54029 c 1.42803,-1.92317 3.62113,-3.80154 5.65251,-4.84133 2.87083,-1.46947 4.17656,-1.69896 9.66666,-1.69896 7.61344,0 11.65189,1.59114 14.69273,5.7889 2.90619,4.01187 3.32143,7.54289 3.32143,28.24391 V 682 h -2.95423 -2.95423 l -0.21243,-19.16667 c -0.19822,-17.88359 -0.30723,-19.3716 -1.6284,-22.22809 -0.77878,-1.68379 -2.42878,-3.78379 -3.66667,-4.66667 -1.95716,-1.39588 -2.99576,-1.60524 -7.96339,-1.60524 -5.13986,0 -5.99575,0.18715 -8.53564,1.86638 -3.77387,2.49507 -6.45642,6.8908 -7.35533,12.05273 -0.40132,2.30456 -0.72968,10.84054 -0.72968,18.96884 V 682 h -3 -3 z m 149.66287,25.20176 c -0.2837,-0.76459 -14.7493,-45.83311 -15.95277,-49.70176 -0.44097,-1.41756 -0.28369,-1.5 2.86147,-1.5 h 3.3281 l 0.9402,3.16667 c 0.5171,1.74166 3.4542,11.64166 6.5269,22 3.0728,10.35833 5.748,18.83333 5.945,18.83333 0.1969,0 2.7388,-8.475 5.6486,-18.83333 2.9097,-10.35834 5.7065,-20.25834 6.2152,-22 L 1031.4336,630 h 3.5692 3.5693 l 1.0064,3.5 c 0.5535,1.925 3.3079,11.6 6.1209,21.5 2.813,9.9 5.3145,18.21819 5.5591,18.48486 0.3487,0.38033 9.1694,-27.90635 12.782,-40.99 0.6779,-2.45515 0.7416,-2.49486 4.0035,-2.49486 3.1061,0 3.2907,0.0944 2.9332,1.5 -0.2099,0.825 -3.9104,12.45 -8.2235,25.83333 l -7.8419,24.33334 h -3.553 -3.5531 l -5.5772,-19 c -3.0675,-10.45 -5.8935,-20.15529 -6.28,-21.5673 -0.3865,-1.41201 -0.8626,-2.4075 -1.0579,-2.21221 -0.1953,0.1953 -3.1162,9.90058 -6.4909,21.5673 l -6.1358,21.21221 -3.4727,0.20176 c -2.3952,0.13916 -3.5728,-0.0677 -3.795,-0.66667 z M 1078,646 v -36 h 3.3333 3.3334 l 0.02,14.5 c 0.015,10.92737 0.2012,14.17148 0.7545,13.16667 1.3154,-2.38886 4.8339,-5.75215 7.5586,-7.22509 2.2268,-1.20378 3.7664,-1.44158 9.3333,-1.44158 7.6405,0 10.7205,1.1611 14.1649,5.33979 3.4615,4.19931 3.6817,5.71491 3.9952,27.49354 L 1120.7838,682 H 1117.3919 1114 l -0,-18.5 c -0,-10.66836 -0.2952,-19.54957 -0.6923,-20.9793 -0.8826,-3.17798 -3.6433,-6.45197 -6.4181,-7.61135 -3.0848,-1.28891 -9.355,-1.12186 -12.5526,0.33442 -1.4666,0.66798 -3.7747,2.44351 -5.129,3.94564 -4.0502,4.49229 -4.5376,7.31354 -4.5376,26.26492 V 682 H 1081.3333 1078 Z m 106.6667,10 v -26 h 3.3333 3.3333 v 4.10003 4.10002 l 1.9475,-2.68841 c 2.9196,-4.03044 8.9659,-6.84497 14.7047,-6.84497 8.3936,0 13.9049,2.69423 16.8771,8.25052 1.414,2.64338 1.4785,3.56628 1.672,23.91614 L 1226.736,682 h -3.0347 -3.0346 l -0.029,-18.5 c -0.034,-21.32227 -0.433,-23.55686 -4.8417,-27.09237 -2.158,-1.73055 -3.2224,-2.07365 -7.1155,-2.29363 -8.3188,-0.47006 -14.4746,3.90669 -16.6849,11.86299 -0.3601,1.29599 -0.6563,9.93134 -0.6583,19.18968 l -0,16.83333 H 1188 h -3.3333 z m 119.4566,22.53275 c -1.0063,-2.67221 -13.6082,-35.28478 -18.174,-47.03275 -0.5598,-1.44047 -0.4424,-1.5 2.9586,-1.5 h 3.5415 l 7.8691,22.16667 c 4.328,12.19166 8.0787,22.40345 8.3348,22.69286 0.2562,0.28941 4.039,-9.68189 8.4062,-22.15844 l 7.9405,-22.68465 3.1667,-0.008 c 1.7416,-0.005 3.1509,0.21678 3.1317,0.49178 -0.019,0.275 -4.2969,11.9 -9.506,25.83333 l -9.4712,25.33334 -3.4338,0.19942 -3.4338,0.19942 z M 1390,656 v -26 h 3 3 l 0.01,6.16667 0.01,6.16666 1.9833,-3.45811 c 3.0723,-5.35687 8.2556,-8.72228 14.4125,-9.35773 L 1416,629.1468 v 3.06306 c 0,3.02566 -0.031,3.06782 -2.5,3.4536 -4.6148,0.72092 -7.1712,1.6184 -9.4966,3.33403 -2.7957,2.06262 -5.7505,6.31885 -6.6602,9.59364 -0.368,1.32488 -0.6708,9.38387 -0.6728,17.90887 l -0,15.5 H 1393.3333 1390 Z m 69.0624,1.15971 c -4.3657,-13.65451 -8.0757,-25.35138 -8.2444,-25.99304 -0.2615,-0.9943 0.1765,-1.16667 2.9647,-1.16667 h 3.2715 l 6.5723,22.03398 c 3.6147,12.11868 6.7809,21.79368 7.036,21.5 0.2551,-0.29369 2.8004,-8.78398 5.6563,-18.86731 2.8559,-10.08334 5.6141,-19.75834 6.1294,-21.5 L 1483.385,630 h 3.5111 3.5111 l 6.2603,22.0028 c 3.4431,12.10155 6.4734,21.77655 6.7338,21.5 0.2605,-0.27654 2.4679,-7.2528 4.9052,-15.5028 2.4374,-8.25 5.3284,-17.925 6.4245,-21.5 l 1.9929,-6.5 h 3.3761 c 2.4199,0 3.2891,0.236 3.0693,0.83333 -0.4954,1.34607 -4.6756,14.21493 -10.8277,33.33334 L 1506.6031,682 l -3.4682,-0.006 -3.4682,-0.006 -6.2966,-21.66425 c -3.463,-11.91533 -6.4946,-21.43768 -6.7368,-21.16076 -0.2422,0.27691 -2.7754,8.60348 -5.6293,18.50348 -2.8539,9.9 -5.609,19.425 -6.1223,21.16666 l -0.9334,3.16667 -3.4741,-0.007 -3.4742,-0.007 z M 1530,646 v -36 h 3.3333 3.3334 v 14.10003 14.10002 l 1.9474,-2.68841 c 2.9197,-4.03044 8.966,-6.84497 14.7047,-6.84497 8.3936,0 13.9049,2.69423 16.8771,8.25052 1.414,2.64338 1.4785,3.56628 1.6721,23.91614 L 1572.0693,682 H 1569.0346 1566 l -0.029,-18.5 c -0.034,-21.32227 -0.433,-23.55686 -4.8417,-27.09237 -2.158,-1.73055 -3.2224,-2.07365 -7.1154,-2.29363 -8.3189,-0.47006 -14.4746,3.90669 -16.685,11.86299 -0.36,1.29599 -0.6563,9.93134 -0.6583,19.18968 l -0,16.83333 H 1533.3333 1530 Z m 106.6667,10 v -26 h 3 3 l 5e-4,6.16667 5e-4,6.16666 1.4066,-2.8416 c 2.8181,-5.69328 10.0179,-10.1584 16.38,-10.1584 2.1689,0 2.2124,0.0574 2.2124,2.92225 0,3.12292 -0.7443,3.71415 -4.7025,3.73532 -2.734,0.0146 -8.4324,3.23328 -10.6247,6.00128 -3.6839,4.65131 -4.0062,6.58941 -4.0062,24.09164 V 682 H 1640 h -3.3333 z m 96.0688,24.53495 c -3.0858,-8.00917 -18.953,-49.06193 -19.21,-49.70162 -0.2432,-0.60519 0.6429,-0.83101 3.2365,-0.82487 l 3.5713,0.008 8,22.64976 c 4.4,12.45736 8.15,22.65104 8.3334,22.65261 0.1833,0.002 3.9158,-10.19461 8.2943,-22.65821 L 1752.9221,630 h 3.2056 c 1.7631,0 3.1994,0.075 3.1917,0.16667 -0.01,0.0917 -4.3233,11.71666 -9.5905,25.83333 l -9.5766,25.66667 -3.4127,0.20161 c -3.0392,0.17956 -3.4774,0.0336 -4.0041,-1.33333 z M 1818,656 v -26 h 3 3 l 0.03,5.83333 0.029,5.83334 1.2515,-2.36677 c 2.8895,-5.46479 10.1815,-9.96657 16.1439,-9.96657 1.7758,0 1.879,0.16095 1.879,2.92868 0,3.13606 -0.6108,3.72566 -3.8878,3.75263 -4.7561,0.0392 -11.1328,4.82829 -13.5108,10.14717 -1.478,3.3059 -1.5808,4.4226 -1.8114,19.67152 L 1823.8789,682 H 1820.9394 1818 Z M 264.44444,656.88889 C 264.2,656.64444 264,655.29444 264,653.88889 v -2.55556 h 12.66667 12.66666 v 3 3 h -12.22222 c -6.72222,0 -12.42222,-0.2 -12.66667,-0.44444 z M 847.33333,615 v -5 h 3 3 v 5 5 h -3 -3 z m -714,-32.72099 c -9.8661,-1.7757 -15.07549,-3.75454 -21.09404,-8.01278 -7.50969,-5.31325 -12.723456,-12.59544 -14.542151,-20.31134 -2.251477,-9.55201 -0.424784,-18.29586 4.963751,-23.76004 8.05833,-8.17145 22.79114,-8.56997 31.57892,-0.8542 3.97863,3.49328 5.29602,6.71584 5.62711,13.76491 0.25534,5.43624 0.10582,6.50081 -1.36388,9.71105 -3.29229,7.19132 -10.25113,11.80228 -18.83637,12.48108 L 115,565.66667 l 3,2.07543 c 7.22851,5.00078 13.62325,6.89319 23.35993,6.91299 10.40218,0.0212 17.41202,-2.86704 24.73717,-10.19219 9.83182,-9.83182 17.25323,-26.4321 25.54064,-57.12957 1.73231,-6.41666 13.86575,-58.31666 26.96321,-115.33333 l 23.81355,-103.66667 -19.54058,-0.17658 -19.54059,-0.17659 V 283.99008 280 h 20.51829 20.51829 l 3.51806,-15.02355 c 5.24116,-22.38186 9.20413,-34.6692 15.90364,-49.30978 13.3822,-29.24442 33.32231,-50.77196 53.52674,-57.78799 15.28883,-5.30907 34.1233,-4.90465 45.74037,0.98216 16.36487,8.29271 24.47645,25.00897 19.49664,40.1785 -1.64915,5.02365 -5.25098,9.24581 -9.97991,11.69869 -4.3594,2.26121 -13.55015,2.5671 -18.70987,0.6227 -8.32179,-3.13598 -13.19891,-10.13214 -13.19891,-18.93365 0,-6.24612 1.59125,-10.11646 5.95551,-14.48533 4.52728,-4.53206 9.41338,-6.60842 15.55098,-6.60842 4.0893,0 4.11235,-0.0106 2.80832,-1.29506 -4.93195,-4.85787 -14.36264,-8.06504 -23.89739,-8.12698 -9.94733,-0.0646 -16.82832,2.66175 -23.78003,9.42204 -9.80258,9.53267 -17.48197,25.82249 -25.25513,53.57217 -2.18964,7.81688 -13.38226,53.65099 -13.38226,54.80076 0,0.16156 12.6,0.29374 28,0.29374 h 28 v 4 4 h -28.97431 -28.9743 l -0.66434,2.5 c -0.36538,1.375 -10.43834,43.9 -22.38435,94.5 -11.94601,50.6 -22.47863,94.85 -23.40583,98.33333 -9.12297,34.27346 -22.28548,60.13944 -39.20842,77.04949 -12.2859,12.27653 -22.11781,17.83476 -36.96727,20.89852 -3.88572,0.80171 -18.05808,1.48297 -20.75452,0.99767 z M 390.66667,476.88926 c -22.13037,-3.48547 -34.41946,-11.66187 -43.67348,-29.05764 -4.85902,-9.13399 -6.94678,-16.32697 -8.36416,-28.81709 -1.45108,-12.7871 0.98604,-35.36255 5.3993,-50.01453 0.77309,-2.56667 1.70172,-5.65847 2.06363,-6.87068 1.26084,-4.22325 6.59856,-16.37125 9.69452,-22.06358 7.40242,-13.61031 14.24601,-22.70243 24.66368,-32.7672 21.86876,-21.12796 43.96952,-30.79022 70.54984,-30.84379 10.91219,-0.022 15.28665,0.55137 23,3.01459 20.06543,6.4078 33.01734,22.95575 37.72355,48.19733 1.87944,10.08026 1.03555,32.95607 -1.67233,45.33333 -0.32088,1.46667 -0.9041,4.16667 -1.29605,6 -0.39196,1.83333 -1.58951,6.03333 -2.66123,9.33333 -9.28858,28.601 -26.76052,53.6432 -48.42727,69.40989 -18.31717,13.32923 -36.70131,19.69635 -56.3015,19.49933 -4.96751,-0.0499 -9.78184,-0.20892 -10.6985,-0.35329 z m 17.4961,-8.84564 c 6.58224,-1.68345 10.97629,-3.95267 17.5039,-9.03954 16.36642,-12.75411 31.18341,-35.10215 42.65638,-64.33741 1.94256,-4.95 3.83667,-10.05 4.20914,-11.33334 0.37246,-1.28333 1.58476,-5.33333 2.69399,-9 2.17658,-7.19492 5.52158,-22.27148 6.72998,-30.33333 4.67413,-31.18353 1.59624,-46.63901 -10.94585,-54.96397 -6.35995,-4.22149 -19.10737,-5.76 -27.98829,-3.37794 -9.03025,2.42211 -19.59303,9.35316 -27.8567,18.2789 -7.50975,8.11144 -20.08359,27.17404 -24.71886,37.47509 -0.88797,1.97336 -2.65354,5.83792 -3.92348,8.58792 -6.88972,14.91931 -14.92362,42.51529 -17.17642,59 -2.11306,15.46211 -2.52165,30.15812 -1.03371,37.17987 1.722,8.1263 7.46049,16.61161 13.26369,19.61256 6.93692,3.58722 17.77437,4.50489 26.58623,2.25119 z m 537.17056,6.33629 C 927.87314,471.22632 917.59181,461.45505 912.31535,443 c -2.57992,-9.02359 -3.50668,-17.37879 -4.28892,-38.66667 -1.44214,-39.24678 -2.87671,-49.13233 -8.99733,-62 -5.90336,-12.41094 -15.07029,-19.25484 -30.36243,-22.66817 -4.11953,-0.91952 -10.37088,-1.17884 -35.5,-1.47264 l -30.5,-0.35659 v 73.7487 73.7487 H 826 849.33333 v 4 4 H 783 716.66667 v -4 -4 h 23 23 V 315.66667 166 h -23 -23 v -4.04665 -4.04664 l 77.5,0.28994 c 81.3028,0.30417 81.20161,0.30054 96.93073,3.4797 35.14661,7.10382 58.11967,25.46034 65.89987,52.65698 5.2405,18.31881 3.38843,45.06094 -4.15439,59.98561 -7.33455,14.5126 -18.33496,24.0286 -36.19075,31.30713 -7.87269,3.20913 -22.08672,6.36849 -35.98546,7.99848 -5.12602,0.60117 -6.56204,0.92287 -4.33334,0.97078 10.22827,0.21986 28.99551,5.0608 36.96142,9.53406 9.62814,5.40668 17.82341,12.69108 22.83309,20.2953 11.10818,16.86116 14.46182,32.14031 15.85645,72.24198 0.80048,23.01713 1.3809,28.66885 3.75424,36.55608 2.78278,9.24792 7.54798,12.77725 17.25146,12.77725 4.62201,0 12.69082,-1.62479 16.78581,-3.38011 1.69377,-0.72604 3.14644,-1.23753 3.22816,-1.13664 0.0817,0.10088 0.77228,1.87428 1.53457,3.94089 l 1.38599,3.75748 -5.12892,1.69295 c -2.82092,0.93112 -7.82893,2.19001 -11.12893,2.79753 -8.14672,1.49978 -27.71493,1.9032 -34.33334,0.70781 z M 867.66667,308.991 c 30.65768,-4.60391 48.11765,-26.19798 50.2578,-62.15767 1.74077,-29.24919 -5.0927,-51.60888 -19.92447,-65.19449 -6.77842,-6.2089 -10.76253,-8.60687 -18.98722,-11.42808 -10.11605,-3.46998 -12.58515,-3.68889 -45.51278,-4.035 l -30.83333,-0.3241 V 237.92583 310 l 29.16666,-0.004 c 22.52025,-0.003 30.68585,-0.23207 35.83334,-1.00507 z m -329,163.71865 c 0,-0.35583 6.57899,-27.13607 14.61998,-59.51164 8.04099,-32.37557 18.25037,-73.50315 22.68751,-91.39462 4.43713,-17.89147 7.89044,-32.81647 7.674,-33.16667 C 583.41622,288.26144 576.82435,288 567.59405,288 l -15.66059,0 0.19994,-3.83333 0.19993,-3.83334 32.5,-0.17301 c 20.55586,-0.10942 32.5,0.0634 32.5,0.47033 0,0.35383 -1.0548,5.08168 -2.34401,10.50634 -4.08451,17.18658 -7.70399,32.30474 -9.43583,39.41235 -0.92236,3.78548 -1.49923,7.06048 -1.28192,7.27778 0.56285,0.56286 0.47403,0.71283 5.30949,-8.96447 8.14927,-16.3093 18.28472,-30.94092 27.0624,-39.06751 8.13672,-7.53316 14.81505,-11.22488 23.24852,-12.85156 6.55404,-1.26416 10.29058,-1.18199 15.28257,0.33612 8.53048,2.59418 13.92728,7.47303 16.83459,15.21891 1.8666,4.97313 1.60864,12.67497 -0.61496,18.36053 -1.85488,4.7428 -6.7666,9.86964 -11.00695,11.48904 -4.12451,1.57517 -12.76034,1.08336 -17.27491,-0.9838 -14.37091,-6.58023 -14.73204,-27.86364 -0.59939,-35.32562 L 665,284.72559 l -2.33333,-0.0222 c -9.39669,-0.0896 -22.87282,9.57197 -33.42448,23.96332 -12.42986,16.95301 -26.01025,45.84024 -35.2588,75 -1.16295,3.66666 -2.5138,7.88979 -3.00188,9.38472 -1.06437,3.26003 -10.35502,41.39002 -17.53081,71.94861 l -1.87856,8 -16.45274,0.17831 c -10.31266,0.11177 -16.45273,-0.0631 -16.45273,-0.46866 z m 65.10818,-133.54298 c -0.18494,-0.45834 -0.33625,-0.0833 -0.33625,0.83333 0,0.91667 0.15131,1.29167 0.33625,0.83333 0.18495,-0.45833 0.18495,-1.20833 0,-1.66666 z M 1020,469.33333 v -4 h 18.6667 18.6666 V 315.66667 166 H 1038.6667 1020 v -4 -4 h 111.6667 111.6666 v 43 43 h -3.9019 l -3.9019,0 -0.3888,-7.83333 c -0.4712,-9.49213 -1.8291,-17.55308 -4.501,-26.71946 -5.425,-18.61185 -15.8592,-30.97488 -31.9697,-37.87969 -11.067,-4.74319 -20.4483,-5.52193 -66.8367,-5.54807 l -34.5,-0.0195 v 70.43021 70.4302 l 16.1667,-0.37316 c 11.0643,-0.25539 17.7447,-0.71194 21.1667,-1.44655 11.3574,-2.43818 20.6626,-9.11532 25.0069,-17.94426 2.5892,-5.26204 4.2971,-12.22699 4.3148,-17.59644 L 1164,266 h 4 4 v 45 45 h -4 -4 v -3.02811 c 0,-5.13287 -1.9343,-13.06787 -4.4479,-18.24653 -4.2746,-8.80702 -12.5687,-15.39183 -23.3015,-18.49948 -3.1131,-0.90141 -7.5096,-1.18794 -21.4173,-1.39581 l -17.5,-0.26156 v 75.38241 75.38241 l 33.8334,-0.003 c 18.6083,-0.001 38.0333,-0.31445 43.1666,-0.69548 26.3906,-1.95884 42.3894,-10.66093 53.4953,-29.09727 6.4888,-10.77171 11.5047,-32.12029 11.5047,-48.96586 0,-7.88126 0.014,-7.90534 4.738,-7.90534 H 1248 V 426 473.33333 h -114 -114 z m 259.3333,0 v -4 h 19.2328 19.2327 l 54.9714,-156.5 54.9715,-156.5 4.3554,-0.19468 4.3554,-0.19469 36.8509,106.52802 c 20.268,58.59041 44.6601,129.10302 54.2047,156.69469 l 17.3538,50.16666 h 16.2357 16.2357 v 4 4 H 1516.6667 1456 v -4 -4 h 21.4111 c 20.0657,0 21.3915,-0.0733 21.0995,-1.16666 -0.1713,-0.64167 -6.7148,-21.04167 -14.5409,-45.33334 l -14.2293,-44.16666 h -55.4717 -55.4716 l -0.7597,2.16666 c -0.4179,1.19167 -7.3875,21.21667 -15.4881,44.5 -8.1007,23.28334 -14.8702,42.70834 -15.0435,43.16667 -0.2482,0.65639 4.4422,0.83333 22.0895,0.83333 H 1372 v 4 4 h -46.3333 -46.3334 z m 165.2163,-172.5 c -12.4111,-38.40833 -23.8371,-73.82024 -25.391,-78.69313 l -2.8253,-8.85981 -27.174,78.19314 c -14.9456,43.00622 -27.1706,78.41814 -27.1666,78.69314 0,0.275 23.6583,0.5 52.565,0.5 h 52.5577 z m 159.4504,172.5 v -4 h 18.6667 18.6666 V 315.66667 166 H 1622.6667 1604 v -4 -4 h 57.6667 57.6666 v 4 4 h -19 -19 v 149.71289 149.71288 l 40.1667,-0.27294 c 40.8076,-0.2773 43.8753,-0.44786 55.1667,-3.06719 11.5256,-2.67369 22.8262,-9.11201 29.1437,-16.60412 9.7571,-11.57138 14.297,-27.9762 15.3077,-55.31485 l 0.4252,-11.5 h 4.2284 H 1830 V 426 473.33333 H 1717 1604 Z M 503.83333,0.16666732 c 277.29167,-0.09214948 731.04167,-0.09214948 1008.33337,0 277.2916,0.0921495 50.4166,0.16754451 -504.1667,0.16754451 -554.58333,0 -781.45833,-0.075395 -504.16667,-0.16754451 z"
       id="path1" />
  </g>
</svg>
